<?xml version="1.0" encoding="UTF-8"?>
<svg width="63px" height="63px" viewBox="0 0 63 63" version="1.1" xmlns="http://www.w3.org/2000/svg" xmlns:xlink="http://www.w3.org/1999/xlink">
    <title>logo</title>
    <g id="Page-1" stroke="none" stroke-width="1" fill="none" fill-rule="evenodd">
        <g id="logo" transform="translate(0.300000, 0.300000)" fill-rule="nonzero">
            <g id="Rectangle" fill="#EB3E58">
                <path d="M31,-7.21644966e-16 L31,-7.21644966e-16 C48.1,-7.21644966e-16 62,13.9 62,31 L62,31 C62,48.1 48.1,62 31,62 L31,62 C13.9,62 0,48.1 0,31 L0,31 C0,13.9 13.9,-7.21644966e-16 31,-7.21644966e-16 Z" id="path-1"></path>
            </g>
            <path d="M30.7,48.6 C32.7,48.6 34.7,48 36.3,46.9 L36.7,46.7 L37,47 C38.3,48.1 39.5,48.7 40.5,48.7 L42.7,48.7 L42.7,46.2 L40.4,46.2 C40,46.2 39.5,45.9 38.9,45.4 L38.5,45.1 L38.8,44.7 C40.2,42.9 41,40.7 41,38.4 C41,32.7 36.4,28.1 30.7,28.1 L30,28.1 C26.7,28.1 24,25.4 24,22.1 C24,18.8 26.7,16.1 30,16.1 C31.4,16.1 32.7,16.6 33.7,17.4 L34.1,17.7 L33.1,18.7 L34.8,20.4 L38.8,16.4 L37.1,14.7 L35.9,15.9 L35.6,15.6 C34,14.2 32.1,13.5 30,13.5 C25.3,13.5 21.5,17.3 21.5,22 C21.5,26.7 25.3,30.5 30,30.5 L30.7,30.5 C35,30.5 38.5,34 38.5,38.3 C38.5,39.9 38,41.4 37.1,42.7 L36.7,43.3 L36.3,42.8 C35.5,41.9 34.7,41 34.1,40.2 C30.7,36.3 28.6,34 26.5,33.9 L26.2,33.9 L18.7,33.9 L18.7,36.4 L20.5,36.4 L20.5,38.4 C20.5,44.1 25.1,48.6 30.7,48.6 Z M23,36.5 L26.4,36.5 C27.5,36.7 29.2,38.6 32.2,41.9 C33,42.8 33.7,43.7 34.4,44.5 L34.8,45 L34.2,45.3 C33.1,45.9 31.9,46.2 30.7,46.2 C26.4,46.2 22.9,42.7 22.9,38.4 L22.9,36.5 L23,36.5 Z" id="Shape" fill="#FFFFFF"></path>
        </g>
    </g>
</svg>